HIERARCHY
ROOT Hips
{
	OFFSET 0.00000 0.00000 0.00000
	CHANNELS 6 Xposition Yposition Zposition Zrotation Yrotation Xrotation 
	JOINT LHipJoint
	{
		OFFSET 0 0 0
		CHANNELS 3 Zrotation Yrotation Xrotation
		JOINT LeftUpLeg
		{
			OFFSET 1.82298 -1.58346 0.87084
			CHANNELS 3 Zrotation Yrotation Xrotation
			JOINT LeftLeg
			{
				OFFSET 2.43790 -6.69809 0.00000
				CHANNELS 3 Zrotation Yrotation Xrotation
				JOINT LeftFoot
				{
					OFFSET 2.59288 -7.12389 0.00000
					CHANNELS 3 Zrotation Yrotation Xrotation
					JOINT LeftToeBase
					{
						OFFSET 0.14552 -0.39981 2.13160
						CHANNELS 3 Zrotation Yrotation Xrotation
						End Site
						{
							OFFSET 0.00000 -0.00000 1.09427
						}
					}
				}
			}
		}
	}
	JOINT RHipJoint
	{
		OFFSET 0 0 0
		CHANNELS 3 Zrotation Yrotation Xrotation
		JOINT RightUpLeg
		{
			OFFSET -1.77229 -1.58346 0.87084
			CHANNELS 3 Zrotation Yrotation Xrotation
			JOINT RightLeg
			{
				OFFSET -2.50703 -6.88801 0.00000
				CHANNELS 3 Zrotation Yrotation Xrotation
				JOINT RightFoot
				{
					OFFSET -2.61620 -7.18796 0.00000
					CHANNELS 3 Zrotation Yrotation Xrotation
					JOINT RightToeBase
					{
						OFFSET -0.15190 -0.41735 2.15974
						CHANNELS 3 Zrotation Yrotation Xrotation
						End Site
						{
							OFFSET -0.00000 -0.00000 1.10919
						}
					}
				}
			}
		}
	}
	JOINT LowerBack
	{
		OFFSET 0 0 0
		CHANNELS 3 Zrotation Yrotation Xrotation
		JOINT Spine
		{
			OFFSET -0.03602 2.12423 -0.30249
			CHANNELS 3 Zrotation Yrotation Xrotation
			JOINT Spine1
			{
				OFFSET 0.02717 2.10043 0.12912
				CHANNELS 3 Zrotation Yrotation Xrotation
				JOINT Neck
				{
					OFFSET 0 0 0
					CHANNELS 3 Zrotation Yrotation Xrotation
					JOINT Neck1
					{
						OFFSET -0.06371 1.88656 0.11602
						CHANNELS 3 Zrotation Yrotation Xrotation
						JOINT Head
						{
							OFFSET 0.08208 1.87759 -0.11505
							CHANNELS 3 Zrotation Yrotation Xrotation
							End Site
							{
								OFFSET 0.03382 1.93090 -0.05483
							}
						}
					}
				}
				JOINT LeftShoulder
				{
					OFFSET 0 0 0
					CHANNELS 3 Zrotation Yrotation Xrotation
					JOINT LeftArm
					{
						OFFSET 3.30903 1.40357 0.20156
						CHANNELS 3 Zrotation Yrotation Xrotation
						JOINT LeftForeArm
						{
							OFFSET 5.43301 -0.00000 0.00000
							CHANNELS 3 Zrotation Yrotation Xrotation
							JOINT LeftHand
							{
								OFFSET 3.15936 -0.00000 0.00000
								CHANNELS 3 Zrotation Yrotation Xrotation
								JOINT LeftFingerBase
								{
									OFFSET 0 0 0
									CHANNELS 3 Zrotation Yrotation Xrotation
									JOINT LeftHandIndex1
									{
										OFFSET 0.71283 -0.00000 0.00000
										CHANNELS 3 Zrotation Yrotation Xrotation
										End Site
										{
											OFFSET 0.57470 -0.00000 0.00000
										}
									}
								}
								JOINT LThumb
								{
									OFFSET 0 0 0
									CHANNELS 3 Zrotation Yrotation Xrotation
									End Site
									{
										OFFSET 0.58347 -0.00000 0.58347
									}
								}
							}
						}
					}
				}
				JOINT RightShoulder
				{
					OFFSET 0 0 0
					CHANNELS 3 Zrotation Yrotation Xrotation
					JOINT RightArm
					{
						OFFSET -3.12947 1.60037 -0.00464
						CHANNELS 3 Zrotation Yrotation Xrotation
						JOINT RightForeArm
						{
							OFFSET -5.34194 -0.00000 0.00000
							CHANNELS 3 Zrotation Yrotation Xrotation
							JOINT RightHand
							{
								OFFSET -3.19351 -0.00000 0.00000
								CHANNELS 3 Zrotation Yrotation Xrotation
								JOINT RightFingerBase
								{
									OFFSET 0 0 0
									CHANNELS 3 Zrotation Yrotation Xrotation
									JOINT RightHandIndex1
									{
										OFFSET -0.74386 -0.00000 0.00000
										CHANNELS 3 Zrotation Yrotation Xrotation
										End Site
										{
											OFFSET -0.59972 -0.00000 0.00000
										}
									}
								}
								JOINT RThumb
								{
									OFFSET 0 0 0
									CHANNELS 3 Zrotation Yrotation Xrotation
									End Site
									{
										OFFSET -0.60888 -0.00000 0.60888
									}
								}
							}
						}
					}
				}
			}
		}
	}
}
MOTION
Frames: 15
Frame Time: 0.00716846
0.00 0.00 0.00 0 0 0 0 0 0 -21 0 0 0 0 0 0 0 0 0 0 0 0 0 0 21 0 0 0 0 0 0 0 0 0 0 0 0 0 0 0 0 0 0 0 0 0 0 -16 0 0 21 0 0 11 0 0 0 -8 0 0 0 0 0 0 0 0 0 0 0 0 0 0 0 0 0 0 0 0 8 0 0 0 0 0 0 0 0 0 0 0 0 0 0 0 0 0
0.00 0.00 0.00 -3.0810 1.9097 3.7020 0.0000 0.0000 0.0000 -6.1185 -5.1816 -26.5504 7.5033 15.7414 50.7530 1.6613 -5.4421 -23.2210 0.3771 -3.9439 -10.9188 0.0000 0.0000 0.0000 12.6529 -0.2146 -26.6845 -7.6724 -15.8729 51.3739 -2.1257 10.9199 -26.2323 -0.4539 4.3219 -11.9840 0.1437 2.5294 9.1975 1.4881 3.5440 -3.7462 0.8976 1.7615 -9.2452 2.5082 8.0926 -4.5466 -1.7861 10.8463 8.7148 -0.4823 5.3783 3.9078 -0.0000 -0.0000 0.0000 -87.0996 -3.7899 43.4846 14.8099 -23.8806 -3.1486 -0.0000 -0.0000 6.6488 25.3203 36.2199 15.6192 -7.1250 0.0000 -0.0000 -12.0316 68.6448 -6.8613 -0.0000 -0.0000 0.0000 78.5240 -4.1305 25.8112 -18.7524 29.1099 -4.9098 0.0000 -0.0000 -1.6492 -21.1420 -32.6913 11.7976 7.1250 -0.0000 -0.0000 13.9339 -63.9916 -6.4745
0.00 0.00 0.00 -3.5650 17.0354 7.4173 0.0000 0.0000 0.0000 -8.4248 -3.9083 -45.9609 10.6588 17.7640 61.6683 1.3984 -2.0264 -21.7895 0.4886 -4.4821 -12.4372 0.0000 0.0000 0.0000 14.1486 -4.7017 -35.2383 -9.3313 -17.0163 57.2291 -2.1064 -1.3905 -27.9772 -1.2710 7.1456 -20.1474 3.2048 1.8953 13.2050 2.2231 3.3289 -3.0458 -0.1370 1.4696 -10.7027 3.9162 10.0710 -3.8289 -6.5136 13.5564 3.2291 -2.2400 6.6681 2.4815 -0.0000 -0.0000 0.0000 -86.5100 -21.8918 86.4590 76.7058 -59.3215 -48.5131 -0.0000 0.0000 -16.6866 18.8894 33.7505 10.7636 -7.1250 0.0000 -0.0000 -17.4689 64.3966 -8.3265 -0.0000 -0.0000 0.0000 66.4667 -1.6874 48.1022 -29.6619 40.6018 -11.1889 0.0000 0.0000 2.7201 -11.9068 -35.8433 7.0388 7.1250 -0.0000 -0.0000 27.4070 -64.3908 -13.3458
0.00 0.00 0.00 -3.5349 18.6104 7.7131 0.0000 0.0000 0.0000 -9.2587 -2.4568 -47.8739 11.9348 18.3629 65.7819 1.2051 3.3436 -22.1868 0.5607 -4.7960 -13.3276 0.0000 0.0000 0.0000 14.0916 -5.2400 -36.4565 -9.6628 -17.2158 58.3553 -2.0427 -2.6694 -28.0696 -1.2492 7.0863 -19.9714 3.6216 1.8884 14.1504 2.0843 3.4390 -3.2352 -0.5843 1.4697 -11.4400 3.8416 9.9259 -3.6200 -6.1748 13.3614 3.4306 -2.1360 6.5787 2.4645 -0.0000 -0.0000 0.0000 -87.6761 -26.8515 91.8853 95.4832 -59.8861 -64.7468 -0.0000 0.0000 -12.5982 26.7275 35.2865 16.2188 -7.1250 0.0000 -0.0000 -9.2574 68.1605 -5.1662 -0.0000 -0.0000 0.0000 64.1810 -0.0430 55.5450 -32.2329 42.7321 -12.8986 0.0000 0.0000 3.3701 -12.9561 -34.3284 7.3923 7.1250 -0.0000 -0.0000 24.6366 -63.3402 -11.3101
0.00 0.00 0.00 -3.5883 19.2881 7.8541 0.0000 0.0000 0.0000 -9.9490 -0.1493 -49.0061 13.3989 18.9215 70.3599 0.7775 8.8903 -22.1576 0.4919 -4.4969 -12.4789 0.0000 0.0000 0.0000 14.0043 -5.4073 -37.3450 -9.9273 -17.3688 59.2452 -1.9674 -3.6617 -28.0119 -1.2962 7.2132 -20.3486 4.0159 2.0238 14.8108 1.9321 3.7175 -3.2832 -1.0654 1.5547 -11.8431 3.7259 9.8991 -3.5357 -6.1292 13.3435 3.6721 -2.1022 6.5676 2.5160 -0.0000 -0.0000 0.0000 -88.3215 -30.8590 95.2035 112.7704 -57.9472 -79.5838 -0.0000 0.0000 -6.7824 29.2372 37.0641 18.6421 -7.1250 0.0000 -0.0000 -7.5209 70.7297 -4.6259 -0.0000 -0.0000 0.0000 62.1290 2.1123 62.5474 -35.8468 45.4074 -15.4133 0.0000 0.0000 4.4582 -11.3485 -33.4070 6.3057 7.1250 -0.0000 -0.0000 25.4368 -62.1074 -10.9639
0.00 0.00 0.00 -3.3904 19.2907 8.1422 0.0000 0.0000 0.0000 -11.0080 4.5831 -49.3504 15.4774 19.5024 76.6706 0.6025 12.0707 -23.5703 0.1946 -2.8408 -7.8360 0.0000 0.0000 0.0000 13.3875 -5.6896 -38.3589 -10.2074 -17.5248 60.1792 -1.9402 -3.7326 -27.8638 -1.3796 7.4325 -21.0031 4.0604 2.3825 15.2094 1.7887 4.2118 -3.2704 -1.3864 1.7711 -12.0295 3.6792 10.1966 -3.4845 -6.8636 13.8163 4.0365 -2.2996 6.7815 2.7184 0.0000 -0.0000 0.0000 -86.6856 -34.0843 95.8652 134.4303 -51.0445 -97.3191 -0.0000 0.0000 -2.4530 30.3846 36.9222 19.4037 -7.1250 0.0000 -0.0000 -5.6898 70.9647 -3.5266 0.0000 -0.0000 0.0000 59.6410 4.9168 71.0416 -44.5417 50.5420 -21.8843 0.0000 0.0000 2.5150 -7.4377 -32.1905 3.9783 7.1250 -0.0000 -0.0000 28.3361 -60.0911 -10.9549
0.00 0.00 0.00 -3.8068 18.9545 8.6375 0.0000 0.0000 0.0000 -11.6550 12.3227 -48.5423 17.1967 19.8105 81.7787 0.3739 15.5190 -25.4398 0.0068 -0.5342 -1.4678 0.0000 0.0000 0.0000 13.2445 -6.2053 -39.3459 -10.3198 -17.5858 60.5520 -1.9696 -3.0367 -27.7436 -1.6527 8.1017 -23.0233 4.6257 2.8026 15.0367 1.7775 4.8834 -3.4306 -1.8719 2.0447 -12.0328 3.8290 10.5820 -3.6996 -7.9279 14.4152 4.2572 -2.6184 7.0481 2.9844 0.0000 0.0000 0.0000 -78.6637 -31.8504 85.4200 150.9170 -40.0943 -109.1859 -0.0000 -0.0000 0.2543 27.1154 41.3888 18.7041 -7.1250 0.0000 -0.0000 -16.6180 74.1449 -11.5237 0.0000 0.0000 0.0000 58.2735 5.9139 77.7397 -64.6033 57.4168 -38.1966 0.0000 -0.0000 -10.8843 -6.2782 -30.8437 3.2283 7.1250 -0.0000 -0.0000 28.3141 -58.6559 -9.9593
0.00 0.00 0.00 -4.3637 20.2068 9.0802 0.0000 0.0000 0.0000 -11.8505 17.0147 -47.3202 17.3128 19.8260 82.1213 0.5426 17.2012 -28.7146 0.1078 2.1170 5.8292 0.0000 0.0000 0.0000 13.5937 -7.3008 -39.3716 -10.1558 -17.4965 60.0077 -1.9464 -3.4563 -27.7772 -1.9625 8.7874 -25.1326 5.1935 2.9230 14.3007 1.8845 5.1324 -3.6672 -2.0893 2.1349 -11.8150 4.3982 10.5836 -3.9068 -8.2982 14.4185 4.3770 -2.8212 7.0428 3.1521 0.0000 0.0000 0.0000 -71.7164 -24.4615 68.8386 154.3956 -36.8154 -111.3505 -0.0000 0.0000 -14.1020 23.8895 49.0878 18.5064 -7.1250 0.0000 -0.0000 -43.2175 78.8450 -34.9916 0.0000 0.0000 0.0000 59.0959 3.2308 77.8430 -85.3071 59.9166 -55.9370 0.0000 -0.0000 -22.8191 4.2999 -28.2682 -2.0394 7.1250 -0.0000 -0.0000 36.2861 -54.3304 -9.2416
0.00 0.00 0.00 -5.0609 24.2190 9.1939 0.0000 0.0000 0.0000 -12.0231 19.1808 -46.0547 16.3865 19.6840 79.3810 0.9132 18.2581 -32.3467 0.5381 4.7000 13.0550 0.0000 0.0000 0.0000 14.2528 -9.0634 -38.2454 -9.8318 -17.3142 58.9248 -1.7794 -5.9756 -27.9390 -2.3184 9.5001 -27.3725 5.5534 2.3894 13.5466 2.5496 4.5196 -3.8241 -1.3855 1.8602 -11.6197 4.8788 10.4673 -4.7093 -8.6525 14.2552 4.5730 -2.9848 6.9371 3.4373 -0.0000 0.0000 0.0000 -66.9658 -16.0917 49.0799 146.1588 -43.9667 -105.9973 -0.0000 0.0000 -33.0370 28.5063 56.1832 24.2858 -7.1250 0.0000 -0.0000 -87.9753 82.3983 -80.2927 -0.0000 0.0000 0.0000 61.1694 -2.7818 74.0933 -105.2339 59.1047 -73.1533 0.0000 -0.0000 -36.2687 24.6326 -21.7563 -9.6456 7.1250 -0.0000 -0.0000 48.1014 -45.8906 -1.3903
0.00 0.00 0.00 -5.0612 28.2673 9.0633 0.0000 0.0000 0.0000 -12.7963 19.6429 -45.1634 15.2482 19.4498 75.9832 0.9366 19.1139 -33.4060 0.5661 4.8188 13.3926 0.0000 0.0000 0.0000 14.1772 -9.8852 -36.4969 -9.6434 -17.2044 58.2898 -1.4323 -9.5998 -27.8996 -2.6633 10.1290 -29.3955 5.1671 1.9019 13.0382 3.1273 3.8258 -3.7960 -0.3646 1.5968 -11.3922 4.8938 10.1449 -5.0154 -9.3073 13.8665 4.7081 -2.8838 6.6984 3.2139 -0.0000 -0.0000 0.0000 -64.2273 -12.7563 39.6587 129.3201 -53.2660 -93.2819 -0.0000 0.0000 -29.0679 29.6164 49.6163 23.4130 -7.1250 0.0000 -0.0000 -40.2613 81.6584 -34.5573 -0.0000 -0.0000 0.0000 63.4933 -8.5488 69.3218 -113.5659 57.7939 -80.2575 0.0000 -0.0000 -44.8028 44.9621 -13.7678 -13.3696 7.1250 -0.0000 -0.0000 51.4762 -34.9345 20.9895
0.00 0.00 0.00 -4.9606 30.6179 8.9475 0.0000 0.0000 0.0000 -13.3113 19.6828 -44.6848 14.5575 19.2745 73.9001 0.9032 19.1867 -33.2860 0.5497 4.7496 13.1958 0.0000 0.0000 0.0000 14.0262 -9.9977 -35.3571 -9.6056 -17.1820 58.1619 -1.1964 -11.6780 -27.8814 -2.7226 10.2318 -29.7306 5.0353 1.7080 12.8211 3.2721 3.5410 -3.7478 -0.0631 1.4835 -11.2368 4.6472 9.8076 -5.3437 -9.1126 13.4055 4.7061 -2.8065 6.4636 3.2041 -0.0000 0.0000 0.0000 -62.8834 -12.6309 36.7772 114.5863 -57.5879 -81.1200 -0.0000 0.0000 -20.4117 32.2094 46.6198 24.6014 -7.1250 0.0000 -0.0000 -22.0577 80.7148 -18.3157 -0.0000 0.0000 0.0000 65.3372 -11.8825 65.9150 -116.2461 57.2300 -82.5184 0.0000 -0.0000 -49.0781 55.6409 -10.4396 -14.8443 7.1250 -0.0000 -0.0000 47.1068 -23.0281 43.0860
0.00 0.00 0.00 -4.6738 33.1573 8.8248 0.0000 0.0000 0.0000 -14.0466 19.6771 -44.1632 13.8024 19.0530 71.6000 0.7477 19.3798 -32.5583 0.4581 4.3417 12.0401 0.0000 0.0000 0.0000 13.6897 -9.8506 -34.0412 -9.6411 -17.2031 58.2821 -0.8680 -14.0413 -27.6821 -2.6954 10.1848 -29.5772 4.6202 1.5639 12.4790 3.4219 3.2590 -3.5981 0.4031 1.3949 -10.9040 4.4517 9.3003 -5.5608 -8.7406 12.6902 4.4023 -3.0157 6.1359 3.3920 -0.0000 -0.0000 0.0000 -61.9503 -13.9119 34.6926 93.9812 -59.9400 -63.4471 -0.0000 0.0000 -8.9661 39.2754 46.4885 30.6713 -7.1250 0.0000 -0.0000 -4.4829 83.6493 -3.9601 -0.0000 -0.0000 0.0000 67.2110 -15.0250 62.0494 -118.1718 56.7777 -84.1336 0.0000 -0.0000 -53.0727 61.5662 -7.9111 -14.2623 7.1250 -0.0000 -0.0000 43.6435 -8.7712 60.5957
0.00 0.00 0.00 -2.9148 41.4850 8.9177 0.0000 0.0000 0.0000 -17.4713 19.4646 -42.7156 11.5000 18.1712 64.3949 0.7179 20.3228 -33.4484 0.0005 0.1506 0.4138 0.0000 0.0000 0.0000 11.8493 -7.3765 -30.0134 -10.4222 -17.6406 60.8905 0.3752 -20.2486 -25.6021 -2.4137 9.6793 -27.9443 2.8734 1.0647 11.7507 3.5230 2.2540 -3.3083 1.7164 1.0464 -10.2331 3.3030 7.6884 -6.0314 -7.6974 10.5610 4.9293 -2.5795 5.0697 3.3440 0.0000 0.0000 0.0000 -61.2136 -26.3807 26.6731 30.9500 -41.6939 -12.0366 -0.0000 -0.0000 32.9518 31.9118 41.2896 22.3387 -7.1250 0.0000 -0.0000 -8.8406 75.8098 -6.4143 0.0000 0.0000 0.0000 74.0567 -24.1708 49.5744 -119.5532 56.4278 -85.2869 0.0000 -0.0000 -59.4062 61.3546 -6.5902 -11.8654 7.1250 -0.0000 -0.0000 43.3657 -6.5630 62.7315
0.00 0.00 0.00 3.7812 58.0506 13.0041 0.0000 0.0000 0.0000 -20.0065 10.2685 -36.0103 9.9706 17.3933 59.3899 0.7462 19.8446 -33.0735 0.0204 -0.9217 -2.5335 0.0000 0.0000 0.0000 7.8440 -2.8777 -29.1836 -15.1317 -19.4220 75.6331 1.6225 -22.2254 -12.9712 -0.8565 5.9020 -16.5004 -1.0067 -1.9716 11.6832 3.2843 -2.4776 -2.5934 4.5737 -1.0296 -9.1645 2.4100 6.3375 -6.8297 -6.9913 8.6823 3.6844 -2.2829 4.1520 2.8539 -0.0000 -0.0000 0.0000 -58.7644 -39.6636 9.2558 9.4077 -15.8078 -1.3090 -0.0000 -0.0000 64.5133 23.9265 40.7376 16.1485 -7.1250 0.0000 -0.0000 -19.9306 72.4246 -13.1292 -0.0000 -0.0000 0.0000 83.4622 -29.9960 34.1649 -107.3935 58.8254 -75.0038 0.0000 -0.0000 -68.3591 22.8322 -12.4891 -5.2023 7.1250 -0.0000 -0.0000 41.2365 -38.7498 8.0707
0.00 0.00 0.00 15.0291 70.0246 20.7224 0.0000 0.0000 0.0000 -20.6847 3.7062 -30.4007 9.5865 17.1707 58.0972 0.7377 17.4618 -30.3584 0.1678 -2.6388 -7.2748 0.0000 0.0000 0.0000 5.1139 2.7595 -35.0357 -21.1898 -19.9660 93.4805 0.2569 -11.3749 3.3420 -0.0358 -1.2218 3.3592 -6.8060 -3.6305 15.6176 3.1737 -5.8074 -1.5956 8.6740 -2.3225 -9.4983 1.5128 4.9083 -7.0236 -5.8401 6.7144 2.5566 -1.8496 3.2120 2.3108 -0.0000 0.0000 0.0000 -61.3735 -42.4560 22.1418 12.4832 -20.5254 -2.2689 -0.0000 -0.0000 48.5460 31.1653 39.3961 20.9992 -7.1250 0.0000 -0.0000 -7.2953 73.6969 -4.9608 -0.0000 0.0000 0.0000 84.9747 -29.6477 28.8866 -99.3913 59.6641 -68.1239 0.0000 -0.0000 -82.9360 -20.0124 -43.8443 14.1598 7.1250 -0.0000 -0.0000 31.0484 -73.6481 -21.5741
